<svg width="100px" height="100px" xmlns="http://www.w3.org/2000/svg" viewBox="0 0 283.38 358.12"><defs><style>.cls-1{fill:#ef310f;}.cls-2,.cls-3{fill:#e43f08;}.cls-3{font-size:45.28px;font-family:HelveticaNeue-Thin, Helvetica Neue;font-weight:200;}.cls-4{letter-spacing:-0.05em;}.cls-5{letter-spacing:-0.01em;}.cls-6{letter-spacing:-0.05em;}</style></defs><g id="Calque_2" data-name="Calque 2"><g id="Calque_1-2" data-name="Calque 1"><circle class="cls-1" cx="219.62" cy="19.1" r="19.07"/><circle class="cls-1" cx="135.7" cy="18.01" r="16.89"/><circle class="cls-2" cx="93.19" cy="18.01" r="14.71"/><circle class="cls-2" cx="51.77" cy="16.92" r="12.53"/><circle class="cls-2" cx="9.26" cy="16.92" r="9.26"/><circle class="cls-1" cx="219.62" cy="61.6" r="19.07"/><circle class="cls-1" cx="177.12" cy="61.6" r="18"/><circle class="cls-1" cx="177.1" cy="18" r="18"/><circle class="cls-1" cx="135.7" cy="60.51" r="16.89"/><circle class="cls-1" cx="93.19" cy="60.51" r="14.71"/><circle class="cls-2" cx="51.77" cy="59.42" r="12.53"/><circle class="cls-2" cx="9.26" cy="59.42" r="9.26"/><circle class="cls-1" cx="262.68" cy="62.15" r="19.62"/><circle class="cls-1" cx="219.62" cy="104.11" r="19.07"/><circle class="cls-1" cx="135.7" cy="103.02" r="16.89"/><circle class="cls-1" cx="93.19" cy="103.02" r="14.71"/><circle class="cls-2" cx="51.77" cy="101.93" r="12.53"/><circle class="cls-2" cx="9.26" cy="101.93" r="9.26"/><circle class="cls-1" cx="262.68" cy="104.66" r="19.62"/><circle class="cls-1" cx="219.62" cy="148.8" r="19.07"/><circle class="cls-1" cx="177.12" cy="148.8" r="18"/><circle class="cls-1" cx="135.7" cy="147.71" r="16.89"/><circle class="cls-1" cx="93.19" cy="147.71" r="14.71"/><circle class="cls-2" cx="51.77" cy="146.62" r="12.53"/><circle class="cls-2" cx="9.26" cy="146.62" r="9.26"/><circle class="cls-1" cx="262.68" cy="149.34" r="19.62"/><circle class="cls-1" cx="219.62" cy="191.31" r="19.07"/><circle class="cls-1" cx="177.12" cy="191.31" r="18"/><circle class="cls-1" cx="135.7" cy="190.22" r="16.89"/><circle class="cls-1" cx="93.19" cy="190.22" r="14.71"/><circle class="cls-2" cx="51.77" cy="189.13" r="12.53"/><circle class="cls-2" cx="9.26" cy="189.13" r="9.26"/><circle class="cls-1" cx="262.68" cy="191.85" r="19.62"/><circle class="cls-1" cx="220.71" cy="234.9" r="19.07"/><circle class="cls-1" cx="136.79" cy="233.81" r="16.89"/><circle class="cls-1" cx="94.28" cy="233.81" r="14.71"/><circle class="cls-2" cx="52.86" cy="232.73" r="12.53"/><circle class="cls-2" cx="10.35" cy="232.73" r="9.26"/><circle class="cls-1" cx="263.77" cy="235.45" r="19.62"/><circle class="cls-1" cx="220.71" cy="276.32" r="19.07"/><circle class="cls-1" cx="136.79" cy="278.5" r="16.89"/><circle class="cls-1" cx="94.28" cy="278.5" r="14.71"/><circle class="cls-2" cx="52.86" cy="278.5" r="12.53"/><circle class="cls-2" cx="10.35" cy="278.5" r="9.26"/><circle class="cls-1" cx="263.77" cy="276.87" r="19.62"/><text class="cls-3" transform="translate(0.1 343.81)">It<tspan class="cls-4" x="19.42" y="0">’</tspan><tspan x="26.49" y="0">s a</tspan><tspan class="cls-5" x="83.5" y="0">t</tspan><tspan x="94.59" y="0">om-de</tspan><tspan class="cls-6" x="219.56" y="0">v</tspan><tspan x="237.49" y="0">.io</tspan></text></g></g></svg>